<svg width="151" height="93" viewBox="0 0 151 93" fill="none" xmlns="http://www.w3.org/2000/svg">
<rect x="0.5" y="0.5" width="150" height="92" rx="4.5" stroke="#9747FF" stroke-dasharray="10 5"/>
<path d="M57.905 46C57.345 46 56.915 45.76 56.615 45.28C56.315 44.8 56.285 44.29 56.525 43.75L64.955 23.62C65.255 22.92 65.745 22.57 66.425 22.57C67.145 22.57 67.635 22.92 67.895 23.62L76.355 43.81C76.575 44.37 76.535 44.88 76.235 45.34C75.955 45.78 75.525 46 74.945 46C74.645 46 74.355 45.92 74.075 45.76C73.815 45.58 73.625 45.34 73.505 45.04L66.065 26.56H66.905L59.345 45.04C59.205 45.36 58.995 45.6 58.715 45.76C58.455 45.92 58.185 46 57.905 46ZM59.495 40.84L60.695 38.26H72.455L73.655 40.84H59.495ZM79.0587 46C78.4987 46 78.0687 45.76 77.7687 45.28C77.4687 44.8 77.4387 44.29 77.6787 43.75L86.1087 23.62C86.4087 22.92 86.8987 22.57 87.5787 22.57C88.2987 22.57 88.7887 22.92 89.0487 23.62L97.5087 43.81C97.7287 44.37 97.6987 44.88 97.4187 45.34C97.1587 45.78 96.7387 46 96.1587 46C95.8587 46 95.5687 45.92 95.2887 45.76C95.0287 45.58 94.8387 45.34 94.7187 45.04L87.2187 26.56H88.1787L80.4987 45.04C80.3587 45.36 80.1487 45.6 79.8687 45.76C79.6087 45.92 79.3387 46 79.0587 46ZM102.817 46C102.377 46 102.007 45.85 101.707 45.55C101.407 45.25 101.257 44.88 101.257 44.44V24.13C101.257 23.67 101.407 23.3 101.707 23.02C102.007 22.72 102.377 22.57 102.817 22.57H116.377C116.837 22.57 117.207 22.71 117.487 22.99C117.767 23.25 117.907 23.6 117.907 24.04C117.907 24.46 117.767 24.8 117.487 25.06C117.207 25.32 116.837 25.45 116.377 25.45H104.377V32.74H112.987C113.447 32.74 113.817 32.88 114.097 33.16C114.377 33.42 114.517 33.76 114.517 34.18C114.517 34.6 114.377 34.95 114.097 35.23C113.817 35.49 113.447 35.62 112.987 35.62H104.377V43.12H116.377C116.837 43.12 117.207 43.25 117.487 43.51C117.767 43.77 117.907 44.11 117.907 44.53C117.907 44.97 117.767 45.33 117.487 45.61C117.207 45.87 116.837 46 116.377 46H102.817ZM106.627 20.05C106.127 20.05 105.697 19.88 105.337 19.54C104.977 19.18 104.797 18.75 104.797 18.25C104.797 17.77 104.977 17.35 105.337 16.99C105.697 16.63 106.127 16.45 106.627 16.45C107.107 16.45 107.527 16.63 107.887 16.99C108.247 17.35 108.427 17.77 108.427 18.25C108.427 18.75 108.247 19.18 107.887 19.54C107.527 19.88 107.107 20.05 106.627 20.05ZM113.287 20.05C112.787 20.05 112.357 19.88 111.997 19.54C111.657 19.18 111.487 18.75 111.487 18.25C111.487 17.77 111.657 17.35 111.997 16.99C112.357 16.63 112.787 16.45 113.287 16.45C113.767 16.45 114.187 16.63 114.547 16.99C114.907 17.35 115.087 17.77 115.087 18.25C115.087 18.75 114.907 19.18 114.547 19.54C114.187 19.88 113.767 20.05 113.287 20.05ZM120.883 49.46C120.723 49.46 120.596 49.4067 120.503 49.3C120.423 49.1933 120.383 49.0733 120.383 48.94C120.383 48.6733 120.456 48.44 120.603 48.24C120.763 48.0533 120.916 47.8467 121.063 47.62C121.223 47.3933 121.303 47.12 121.303 46.8C121.303 46.5733 121.249 46.3867 121.143 46.24C121.036 46.0933 120.916 45.96 120.783 45.84C120.649 45.7067 120.529 45.56 120.423 45.4C120.316 45.24 120.263 45.04 120.263 44.8C120.263 44.44 120.383 44.14 120.623 43.9C120.863 43.66 121.189 43.54 121.603 43.54C122.109 43.54 122.489 43.7133 122.743 44.06C123.009 44.4067 123.149 44.8733 123.163 45.46C123.163 45.8867 123.089 46.3333 122.943 46.8C122.809 47.2667 122.623 47.7 122.383 48.1C122.156 48.5 121.909 48.8267 121.643 49.08C121.376 49.3333 121.123 49.46 120.883 49.46ZM63.773 67.74C63.5863 67.9267 63.333 68.0133 63.013 68C62.693 68 62.4396 67.8933 62.253 67.68L55.693 60.04L61.813 52.72C61.9996 52.4933 62.2396 52.38 62.533 52.38C62.8396 52.3667 63.0863 52.4667 63.273 52.68C63.4596 52.8933 63.5463 53.12 63.533 53.36C63.533 53.5867 63.4396 53.8067 63.253 54.02L58.193 59.9L63.773 66.38C63.9596 66.5933 64.0596 66.82 64.073 67.06C64.0996 67.2867 63.9996 67.5133 63.773 67.74ZM53.333 68C53.0396 68 52.793 67.9 52.593 67.7C52.393 67.5 52.293 67.2533 52.293 66.96V53.42C52.293 53.1133 52.393 52.8667 52.593 52.68C52.793 52.48 53.0396 52.38 53.333 52.38C53.6396 52.38 53.8863 52.48 54.073 52.68C54.273 52.8667 54.373 53.1133 54.373 53.42V59.16H57.653V61H54.373V66.96C54.373 67.2533 54.273 67.5 54.073 67.7C53.8863 67.9 53.6396 68 53.333 68ZM70.0905 68.08C69.1171 68.08 68.2438 67.84 67.4705 67.36C66.6971 66.8667 66.0838 66.2067 65.6305 65.38C65.1905 64.54 64.9705 63.5933 64.9705 62.54C64.9705 61.4867 65.2105 60.54 65.6905 59.7C66.1838 58.86 66.8438 58.2 67.6705 57.72C68.5105 57.2267 69.4505 56.98 70.4905 56.98C71.5305 56.98 72.4638 57.2267 73.2905 57.72C74.1171 58.2 74.7705 58.86 75.2505 59.7C75.7438 60.54 75.9905 61.4867 75.9905 62.54H75.2105C75.2105 63.5933 74.9838 64.54 74.5305 65.38C74.0905 66.2067 73.4838 66.8667 72.7105 67.36C71.9371 67.84 71.0638 68.08 70.0905 68.08ZM70.4905 66.28C71.1705 66.28 71.7771 66.12 72.3105 65.8C72.8438 65.4667 73.2638 65.02 73.5705 64.46C73.8771 63.8867 74.0305 63.2467 74.0305 62.54C74.0305 61.82 73.8771 61.18 73.5705 60.62C73.2638 60.0467 72.8438 59.6 72.3105 59.28C71.7771 58.9467 71.1705 58.78 70.4905 58.78C69.8238 58.78 69.2171 58.9467 68.6705 59.28C68.1371 59.6 67.7105 60.0467 67.3905 60.62C67.0838 61.18 66.9305 61.82 66.9305 62.54C66.9305 63.2467 67.0838 63.8867 67.3905 64.46C67.7105 65.02 68.1371 65.4667 68.6705 65.8C69.2171 66.12 69.8238 66.28 70.4905 66.28ZM74.9705 68.02C74.6771 68.02 74.4305 67.9267 74.2305 67.74C74.0438 67.54 73.9505 67.2933 73.9505 67V63.94L74.3305 61.82L75.9905 62.54V67C75.9905 67.2933 75.8905 67.54 75.6905 67.74C75.5038 67.9267 75.2638 68.02 74.9705 68.02ZM83.1266 57.08C83.3266 57.08 83.5066 57.1333 83.6666 57.24C83.8266 57.3467 83.9532 57.5133 84.0466 57.74L88.1666 66.68C88.2866 66.9467 88.2999 67.1867 88.2066 67.4C88.1132 67.6 87.9532 67.7533 87.7266 67.86C87.4332 67.9933 87.1799 68.0267 86.9666 67.96C86.7532 67.8933 86.5732 67.7267 86.4266 67.46L82.6666 58.92H83.6866L79.8066 67.46C79.6866 67.7133 79.5066 67.88 79.2666 67.96C79.0399 68.0267 78.7866 67.9933 78.5066 67.86C78.2532 67.74 78.0732 67.58 77.9666 67.38C77.8732 67.18 77.8932 66.9467 78.0266 66.68L82.1666 57.74C82.3666 57.3 82.6866 57.08 83.1266 57.08ZM90.5248 72.8C90.2848 72.8 90.0382 72.7667 89.7848 72.7C89.5448 72.6333 89.3048 72.5333 89.0648 72.4C88.7715 72.2267 88.5782 72.0133 88.4848 71.76C88.3915 71.5067 88.4315 71.26 88.6048 71.02C88.7648 70.7933 88.9582 70.6533 89.1848 70.6C89.4115 70.5467 89.6515 70.5933 89.9048 70.74C90.0515 70.82 90.1848 70.88 90.3048 70.92C90.4382 70.96 90.5715 70.98 90.7048 70.98C91.1315 70.98 91.5382 70.76 91.9248 70.32C92.3248 69.88 92.7182 69.2267 93.1048 68.36L97.8848 57.56C98.0048 57.2933 98.1848 57.1133 98.4248 57.02C98.6782 56.9267 98.9315 56.94 99.1848 57.06C99.4115 57.1533 99.5582 57.3267 99.6248 57.58C99.6915 57.82 99.6582 58.08 99.5248 58.36L94.7048 69.16C94.2248 70.24 93.6115 71.1133 92.8648 71.78C92.1315 72.46 91.3515 72.8 90.5248 72.8ZM95.0848 67.56C94.8315 67.6667 94.5915 67.68 94.3648 67.6C94.1515 67.5067 93.9782 67.3333 93.8448 67.08L89.2648 58.38C89.1315 58.1267 89.1115 57.8867 89.2048 57.66C89.3115 57.42 89.4915 57.2467 89.7448 57.14C89.9982 57.0333 90.2315 57.0267 90.4448 57.12C90.6715 57.2 90.8515 57.3667 90.9848 57.62L95.3848 66.24C95.5182 66.4933 95.5648 66.7533 95.5248 67.02C95.4848 67.2733 95.3382 67.4533 95.0848 67.56ZM105.102 68.08C104.262 68.08 103.509 67.9533 102.842 67.7C102.189 67.4333 101.669 67.0667 101.282 66.6C100.909 66.1333 100.722 65.6 100.722 65C100.722 64.4 100.889 63.8867 101.222 63.46C101.569 63.0333 102.062 62.6733 102.702 62.38C103.355 62.0867 104.135 61.8533 105.042 61.68C105.949 61.4933 106.562 61.2733 106.882 61.02C107.202 60.7533 107.362 60.4133 107.362 60C107.362 59.5733 107.149 59.26 106.722 59.06C106.295 58.8467 105.802 58.74 105.242 58.74C104.775 58.74 104.309 58.8133 103.842 58.96C103.389 59.1067 103.009 59.32 102.702 59.6C102.502 59.7867 102.282 59.9133 102.042 59.98C101.802 60.0467 101.609 60.0333 101.462 59.94C101.209 59.78 101.049 59.5733 100.982 59.32C100.929 59.0667 100.989 58.8333 101.162 58.62C101.562 58.1267 102.122 57.7333 102.842 57.44C103.575 57.1333 104.382 56.98 105.262 56.98C106.009 56.98 106.689 57.1 107.302 57.34C107.915 57.5667 108.402 57.9067 108.762 58.36C109.135 58.8133 109.322 59.3733 109.322 60.04C109.322 60.8133 109.009 61.4667 108.382 62C107.755 62.52 106.802 62.92 105.522 63.2C104.469 63.4133 103.742 63.6667 103.342 63.96C102.942 64.24 102.749 64.58 102.762 64.98C102.775 65.3933 102.975 65.7133 103.362 65.94C103.749 66.1667 104.329 66.28 105.102 66.28C105.795 66.28 106.382 66.2133 106.862 66.08C107.355 65.9333 107.742 65.7133 108.022 65.42C108.209 65.22 108.422 65.0867 108.662 65.02C108.902 64.9533 109.149 65.0267 109.402 65.24C109.629 65.4267 109.742 65.64 109.742 65.88C109.742 66.12 109.642 66.3467 109.442 66.56C109.002 67 108.389 67.3667 107.602 67.66C106.815 67.94 105.982 68.08 105.102 68.08ZM116.809 68.08C115.836 68.08 114.963 67.84 114.189 67.36C113.416 66.8667 112.803 66.2067 112.349 65.38C111.909 64.54 111.689 63.5933 111.689 62.54C111.689 61.4867 111.929 60.54 112.409 59.7C112.903 58.86 113.563 58.2 114.389 57.72C115.229 57.2267 116.169 56.98 117.209 56.98C118.249 56.98 119.183 57.2267 120.009 57.72C120.836 58.2 121.489 58.86 121.969 59.7C122.463 60.54 122.709 61.4867 122.709 62.54H121.929C121.929 63.5933 121.703 64.54 121.249 65.38C120.809 66.2067 120.203 66.8667 119.429 67.36C118.656 67.84 117.783 68.08 116.809 68.08ZM117.209 66.28C117.889 66.28 118.496 66.12 119.029 65.8C119.563 65.4667 119.983 65.02 120.289 64.46C120.596 63.8867 120.749 63.2467 120.749 62.54C120.749 61.82 120.596 61.18 120.289 60.62C119.983 60.0467 119.563 59.6 119.029 59.28C118.496 58.9467 117.889 58.78 117.209 58.78C116.543 58.78 115.936 58.9467 115.389 59.28C114.856 59.6 114.429 60.0467 114.109 60.62C113.803 61.18 113.649 61.82 113.649 62.54C113.649 63.2467 113.803 63.8867 114.109 64.46C114.429 65.02 114.856 65.4667 115.389 65.8C115.936 66.12 116.543 66.28 117.209 66.28ZM121.689 68.02C121.396 68.02 121.149 67.9267 120.949 67.74C120.763 67.54 120.669 67.2933 120.669 67V63.94L121.049 61.82L122.709 62.54V67C122.709 67.2933 122.609 67.54 122.409 67.74C122.223 67.9267 121.983 68.02 121.689 68.02ZM126.325 64.3C126.032 64.3 125.785 64.2 125.585 64C125.399 63.7867 125.305 63.5467 125.305 63.28V53.42C125.305 53.1267 125.399 52.88 125.585 52.68C125.785 52.48 126.032 52.38 126.325 52.38C126.619 52.38 126.859 52.48 127.045 52.68C127.245 52.88 127.345 53.1267 127.345 53.42V63.28C127.345 63.56 127.239 63.8 127.025 64C126.825 64.2 126.592 64.3 126.325 64.3ZM126.325 68C125.952 68 125.625 67.8667 125.345 67.6C125.079 67.3333 124.945 67.0067 124.945 66.62C124.945 66.2333 125.079 65.9067 125.345 65.64C125.625 65.36 125.952 65.22 126.325 65.22C126.712 65.22 127.039 65.36 127.305 65.64C127.572 65.9067 127.705 66.2333 127.705 66.62C127.705 67.0067 127.565 67.3333 127.285 67.6C127.019 67.8667 126.699 68 126.325 68Z" fill="white"/>
<path d="M48.2411 39.3431C48.0692 45.146 43.2979 49.8313 37.409 49.8313C31.5201 49.8313 26.7488 45.146 26.5769 39.3431H20.2581C20.2581 40.0738 20.3441 40.8045 20.473 41.4923V41.6212C20.7739 43.3836 21.3757 45.06 22.1924 46.5645L23.1381 48.1549L28.3392 57.2247L37.452 73L46.5217 57.2247L51.7658 48.1549L52.7545 46.4355L52.8404 46.2636C53.6571 44.8021 54.173 43.2117 54.4739 41.5353C54.6028 40.8045 54.6888 40.0738 54.6888 39.3431H48.1981H48.2411Z" fill="#BCBCBC"/>
<path d="M54.6028 39.0852H54.6458V38.9562C54.6458 38.9562 54.6458 38.9992 54.6028 39.0852Z" fill="#4F9F62"/>
<path d="M28.6399 22.4931C23.4818 25.631 20.043 31.4769 20 38.1825H26.4907C26.5337 33.97 28.6399 30.3593 31.8637 28.382L28.5969 22.4501L28.6399 22.4931Z" fill="url(#paint0_linear_33_369)"/>
<path d="M45.1028 21.8913L41.793 27.8662C40.4605 27.2214 38.956 26.8775 37.3226 26.8775C35.6892 26.8775 34.2277 27.2214 32.8092 27.8662L29.5854 21.9343C31.9066 20.6878 34.5716 20 37.3226 20C40.0736 20 42.7817 20.6878 45.1028 21.8913Z" fill="url(#paint1_linear_33_369)"/>
<path d="M46.0488 22.4501L42.739 28.382C45.9629 30.3593 48.1121 33.97 48.1551 38.2255H54.6887C54.6457 31.4769 51.207 25.631 46.0058 22.4931L46.0488 22.4501Z" fill="url(#paint2_linear_33_369)"/>
<path d="M49.2295 29.3706L43.8994 34.3139L38.5693 39.2571C38.0535 39.7299 37.2368 39.644 36.8499 39.1281C36.4201 38.6123 36.549 37.7956 37.1078 37.4088L43.1687 33.3682L49.2295 29.3277V29.3706Z" fill="#BCBCBC"/>
<defs>
<linearGradient id="paint0_linear_33_369" x1="29.4136" y1="26.1038" x2="22.837" y2="35.9903" gradientUnits="userSpaceOnUse">
<stop stop-color="#517AD7"/>
<stop offset="1" stop-color="#4FA05F"/>
</linearGradient>
<linearGradient id="paint1_linear_33_369" x1="29.5854" y1="23.9116" x2="45.1028" y2="23.9116" gradientUnits="userSpaceOnUse">
<stop stop-color="#7044BB"/>
<stop offset="1" stop-color="#EF55CF"/>
</linearGradient>
<linearGradient id="paint2_linear_33_369" x1="46.0488" y1="25.8889" x2="51.8088" y2="36.3771" gradientUnits="userSpaceOnUse">
<stop stop-color="#FB5759"/>
<stop offset="1" stop-color="#A24974"/>
</linearGradient>
</defs>
</svg>
